<svg width="24" height="24" viewBox="0 0 24 24" fill="none" xmlns="http://www.w3.org/2000/svg">
<path d="M10.724 23.9999C9.617 23.9999 8.324 23.9939 7.048 23.9209C5.1811 23.9629 3.3729 23.2669 2.016 21.9839C0.7328 20.6275 0.0367005 18.8196 0.0790005 16.9529C4.69387e-07 15.5099 0 14.0509 0 12.6399C0 12.4265 0 12.2132 0 11.9999C0 11.7865 0 11.5732 0 11.3599C0 9.9489 4.69387e-07 8.4899 0.0790005 7.0479C0.0370005 5.1809 0.733 3.3728 2.016 2.0159C3.3729 0.732901 5.1811 0.0369013 7.048 0.0789013C8.328 0.00590129 9.617 -9.91821e-05 10.724 -9.91821e-05H13.277C14.384 -9.91821e-05 15.677 0.00590129 16.954 0.0789013C18.8207 0.0366013 20.6286 0.732701 21.985 2.0159C23.268 3.3728 23.964 5.1809 23.922 7.0479C24 8.4899 24 9.9489 24 11.3609C24 11.5742 24 11.7875 24 12.0009C24 12.2142 24 12.4272 24 12.6399C24 14.0509 24 15.5099 23.921 16.9539C23.9633 18.8206 23.2672 20.6285 21.984 21.9849C20.6276 23.2681 18.8197 23.9642 16.953 23.9219C15.672 23.9949 14.383 24.0009 13.276 24.0009L10.724 23.9999Z" fill="#C4C4CC"/>
<path d="M18.0228 5.05278C17.9814 5.23425 17.8464 5.3963 17.6184 5.53889C17.4109 5.68147 17.162 5.80463 16.8717 5.90833C16.5814 5.99908 16.2703 6.07686 15.9384 6.14167C15.6273 6.19352 15.337 6.21944 15.0673 6.21944C14.7354 6.21944 14.3414 6.19352 13.885 6.14167C13.4495 6.08981 13.0243 6.025 12.6095 5.94722C12.2154 5.86944 11.8732 5.79167 11.5828 5.71389C11.3132 5.63611 11.1784 5.56481 11.1784 5.5C11.1784 5.47408 11.2199 5.45464 11.3028 5.44167C11.3858 5.4287 11.4895 5.41575 11.6139 5.40278C11.7591 5.38981 11.9043 5.38333 12.0495 5.38333C12.1947 5.38333 12.3191 5.38333 12.4228 5.38333C12.8376 5.38333 13.2939 5.3963 13.7917 5.42222C14.3102 5.44814 14.7769 5.45464 15.1917 5.44167C15.5237 5.44167 15.8037 5.43519 16.0317 5.42222C16.2598 5.40925 16.4673 5.38981 16.6539 5.36389C16.8614 5.325 17.0584 5.28611 17.245 5.24722C17.4317 5.19536 17.6495 5.13055 17.8984 5.05278C17.9398 5.02686 17.9814 5.02686 18.0228 5.05278ZM18.3339 4.43055C18.3339 4.56019 18.2303 4.67036 18.0228 4.76111C17.8362 4.85186 17.6081 4.92964 17.3384 4.99444C17.0895 5.0463 16.8198 5.09167 16.5295 5.13055C16.2598 5.15647 16.0526 5.16944 15.9073 5.16944C15.1398 5.16944 14.3621 5.11759 13.5739 5.01389C12.7858 4.91019 12.008 4.85833 11.2406 4.85833C10.328 4.85833 9.50874 4.99444 8.78282 5.26667C8.05691 5.52592 7.48652 5.89536 7.07171 6.375C7.03024 6.41389 6.97838 6.43333 6.91616 6.43333C6.85393 6.43333 6.84358 6.40092 6.88505 6.33611C7.21691 5.70092 7.7458 5.19536 8.47171 4.81944C9.19763 4.44352 10.1414 4.25555 11.3028 4.25555C12.1739 4.25555 13.0347 4.32036 13.885 4.45C14.7562 4.56667 15.6273 4.625 16.4984 4.625C16.8095 4.625 17.1309 4.60555 17.4628 4.56667C17.8153 4.51481 18.0331 4.47592 18.1162 4.45C18.137 4.43703 18.1784 4.43055 18.2406 4.43055C18.3028 4.41759 18.3339 4.41759 18.3339 4.43055ZM9.52949 5.61667C9.52949 5.64258 9.46727 5.68797 9.34282 5.75278C9.21838 5.81758 9.07318 5.88889 8.90727 5.96667C8.74135 6.03147 8.57541 6.0963 8.40949 6.16111C8.2643 6.21297 8.1606 6.25186 8.09838 6.27778C7.91171 6.38147 7.7458 6.49167 7.6006 6.60833C7.45541 6.71203 7.29985 6.82222 7.13394 6.93889C7.11319 6.93889 7.10283 6.95186 7.10283 6.97778C7.10283 6.99075 7.08207 6.99722 7.0406 6.99722C7.01985 6.99722 7.00949 6.97778 7.00949 6.93889C7.00949 6.78333 7.08207 6.6213 7.22727 6.45278C7.37246 6.28425 7.54874 6.13519 7.75616 6.00555C7.9843 5.86297 8.23319 5.75278 8.50283 5.675C8.79318 5.58425 9.07318 5.53889 9.34282 5.53889C9.46727 5.53889 9.52949 5.56481 9.52949 5.61667ZM16.5917 9.05833C16.6126 9.69352 16.5086 10.3611 16.2806 11.0611C16.0526 11.7481 15.7309 12.4481 15.3162 13.1611C14.9014 13.8611 14.4243 14.5547 13.885 15.2417C13.3665 15.9286 12.8169 16.5769 12.2362 17.1861C11.6554 17.7953 11.0747 18.3592 10.4939 18.8778C9.91318 19.3964 9.38429 19.837 8.90727 20.2C8.88652 20.213 8.85541 20.2325 8.81394 20.2583C8.77246 20.2972 8.73096 20.3297 8.68949 20.3556C8.64802 20.3944 8.60652 20.4139 8.56505 20.4139C8.52358 20.4269 8.50283 20.4075 8.50283 20.3556C8.48207 20.3167 8.59616 20.1353 8.84505 19.8111C9.11469 19.5 9.43616 19.1111 9.80949 18.6444C10.2036 18.1778 10.6287 17.6722 11.085 17.1278C11.5621 16.5833 12.008 16.0648 12.4228 15.5722C12.8376 15.0667 13.2006 14.6259 13.5117 14.25C13.8228 13.8611 14.0199 13.5954 14.1028 13.4528C14.331 13.0639 14.5591 12.6556 14.7873 12.2278C15.0362 11.787 15.2539 11.3333 15.4406 10.8667C15.6481 10.4 15.8037 9.92036 15.9073 9.42778C16.0317 8.93519 16.0837 8.43611 16.0628 7.93055C16.0628 7.82686 16.0731 7.775 16.0939 7.775C16.1353 7.775 16.1664 7.78797 16.1873 7.81389C16.2081 7.82686 16.2392 7.8787 16.2806 7.96944C16.3428 8.09908 16.405 8.28703 16.4673 8.53333C16.5503 8.76667 16.5917 8.94167 16.5917 9.05833ZM14.0717 7.075C13.9058 8.13797 13.6465 9.09722 13.2939 9.95278C12.9414 10.7954 12.5473 11.5602 12.1117 12.2472C11.6969 12.9343 11.251 13.5565 10.7739 14.1139C10.3176 14.6714 9.90282 15.1833 9.52949 15.65C9.13541 16.1425 8.76207 16.6353 8.40949 17.1278C8.07763 17.6203 7.77691 18.1194 7.50727 18.625C7.25838 19.1436 7.05096 19.675 6.88505 20.2194C6.73985 20.7639 6.66727 21.3408 6.66727 21.95C6.66727 22.0925 6.64652 22.1509 6.60505 22.125C6.56357 22.125 6.53247 22.0861 6.51171 22.0083C6.47024 21.9436 6.42874 21.8592 6.38727 21.7556C6.3458 21.6648 6.31469 21.5741 6.29394 21.4833C6.25246 21.3925 6.23171 21.3148 6.23171 21.25C6.12802 20.6536 6.13838 20.0898 6.26282 19.5583C6.36652 19.0398 6.53246 18.5408 6.7606 18.0611C7.00949 17.5686 7.29985 17.0953 7.63171 16.6417C7.96358 16.188 8.28505 15.7278 8.59616 15.2611C8.92802 14.7686 9.33246 14.1981 9.80949 13.55C10.3073 12.9019 10.7947 12.2213 11.2717 11.5083C11.7487 10.7824 12.1843 10.0435 12.5784 9.29167C12.9725 8.52686 13.2421 7.78797 13.3873 7.075C12.5991 7.04908 11.7798 6.99722 10.9295 6.91944C10.0998 6.8287 9.32207 6.71852 8.59616 6.58889C8.55469 6.57592 8.51318 6.56297 8.47171 6.55C8.43024 6.53703 8.40949 6.51759 8.40949 6.49167C8.38874 6.45278 8.43024 6.42036 8.53394 6.39444C8.65838 6.36852 8.73096 6.35556 8.75171 6.35556C9.41541 6.25186 10.0376 6.2 10.6184 6.2C11.4065 6.2 12.1843 6.25186 12.9517 6.35556C13.7191 6.4463 14.4969 6.49167 15.285 6.49167C15.5339 6.49167 15.7931 6.4787 16.0628 6.45278C16.3531 6.41389 16.5503 6.38147 16.6539 6.35556C16.737 6.32964 16.7784 6.33611 16.7784 6.375C16.7784 6.40092 16.7681 6.42686 16.7473 6.45278C16.5606 6.59536 16.3326 6.71203 16.0628 6.80278C15.8139 6.88055 15.5442 6.94536 15.2539 6.99722C15.3162 7.16575 15.3575 7.3213 15.3784 7.46389C15.3992 7.59352 15.4198 7.71019 15.4406 7.81389C15.565 8.475 15.5028 9.175 15.2539 9.91389C15.0258 10.6398 14.6836 11.3722 14.2273 12.1111C13.771 12.837 13.2317 13.5565 12.6095 14.2694C11.9873 14.9694 11.3547 15.6175 10.7117 16.2139C10.5458 16.3564 10.4214 16.4019 10.3384 16.35C10.2762 16.2981 10.2969 16.188 10.4006 16.0194C10.525 15.812 10.7221 15.5269 10.9917 15.1639C11.2614 14.788 11.5414 14.4056 11.8317 14.0167C12.1221 13.6148 12.3917 13.2389 12.6406 12.8889C12.8895 12.5389 13.0554 12.2861 13.1384 12.1306C13.6776 11.0806 14.0614 10.1343 14.2895 9.29167C14.5384 8.43611 14.6421 7.69075 14.6006 7.05555C14.4969 7.06852 14.4036 7.075 14.3206 7.075C14.2376 7.075 14.1547 7.075 14.0717 7.075ZM8.62727 18.4306C8.62727 18.5083 8.59616 18.6444 8.53394 18.8389C8.47171 19.0464 8.39913 19.2667 8.31616 19.5C8.23318 19.7333 8.15024 19.9536 8.06727 20.1611C7.9843 20.3814 7.93246 20.5436 7.91171 20.6472C7.80802 20.9194 7.72505 21.1917 7.66282 21.4639C7.62135 21.7361 7.57985 22.0214 7.53838 22.3194C7.53838 22.3453 7.52802 22.3842 7.50727 22.4361C7.50727 22.488 7.47616 22.5139 7.41394 22.5139C7.37247 22.5009 7.34135 22.462 7.3206 22.3972C7.29985 22.3325 7.27913 22.287 7.25838 22.2611C7.21691 22.1444 7.16505 21.9889 7.10283 21.7944C7.06135 21.613 7.0406 21.4703 7.0406 21.3667C7.0406 21.0425 7.09246 20.6991 7.19616 20.3361C7.29985 19.9861 7.4243 19.662 7.56949 19.3639C7.71469 19.0658 7.87024 18.8194 8.03616 18.625C8.20207 18.4306 8.35763 18.3398 8.50283 18.3528C8.5443 18.3658 8.56505 18.3786 8.56505 18.3917C8.5858 18.4047 8.60652 18.4175 8.62727 18.4306Z" fill="#292826"/>
</svg>
