<svg width="17" height="16" viewBox="0 0 17 16" fill="none" xmlns="http://www.w3.org/2000/svg">
<path d="M14.5232 2.32525C12.9251 0.826653 10.7998 0.000933859 8.53547 9.15527e-05C3.86999 9.15527e-05 0.0728398 3.55653 0.0709727 7.92797C0.0703733 9.32531 0.460136 10.6893 1.20084 11.8916L0 16.0001L4.48714 14.8976C5.72349 15.5292 7.11542 15.8621 8.53211 15.8626H8.53559C13.2006 15.8626 16.9981 12.3058 17 7.93427C17.0009 5.81583 16.1213 3.82384 14.5232 2.32525V2.32525ZM8.53559 14.5236H8.53271C7.2703 14.5231 6.03211 14.2055 4.95194 13.6051L4.69501 13.4623L2.03228 14.1165L2.74302 11.6848L2.5757 11.4355C1.87145 10.3863 1.49951 9.17359 1.50006 7.92848C1.50158 4.29514 4.65765 1.33914 8.53831 1.33914C10.4174 1.33981 12.1839 2.02618 13.5121 3.27174C14.8404 4.51729 15.5715 6.17299 15.5708 7.93378C15.5693 11.5674 12.4133 14.5236 8.53559 14.5236V14.5236ZM12.3946 9.58822C12.1831 9.48906 11.1433 9.00979 10.9494 8.94368C10.7555 8.87755 10.6146 8.8445 10.4735 9.04286C10.3326 9.24117 9.92725 9.68739 9.80383 9.81959C9.68047 9.95181 9.5571 9.96836 9.34561 9.86918C9.1341 9.77003 8.45263 9.56083 7.6448 8.88593C7.01609 8.3607 6.59159 7.7119 6.46823 7.51355C6.34486 7.31522 6.45511 7.20803 6.56098 7.10924C6.65611 7.0205 6.77247 6.87787 6.87823 6.76219C6.98396 6.64654 7.01923 6.56386 7.08972 6.43166C7.16023 6.29944 7.12496 6.18374 7.07208 6.08459C7.01923 5.98544 6.59623 5.01035 6.41998 4.61371C6.24832 4.22741 6.07392 4.27968 5.9441 4.27361C5.82087 4.26786 5.67974 4.26665 5.53876 4.26665C5.39778 4.26665 5.16864 4.31622 4.97478 4.51455C4.78092 4.71288 4.23456 5.19215 4.23456 6.16722C4.23456 7.14229 4.99239 8.08431 5.09815 8.21651C5.2039 8.34873 6.5895 10.3497 8.71112 11.2078C9.21574 11.4119 9.60968 11.5338 9.91685 11.6251C10.4235 11.7759 10.8846 11.7546 11.249 11.7036C11.6553 11.6467 12.5003 11.2244 12.6766 10.7616C12.8528 10.2989 12.8528 9.90225 12.7999 9.81961C12.7471 9.73698 12.6061 9.68739 12.3946 9.58822V9.58822Z" fill="#D9D9D9"/>
</svg>
